<?xml version="1.0" encoding="UTF-8"?>
<svg width="403px" height="296px" viewBox="0 0 403 296" version="1.1" xmlns="http://www.w3.org/2000/svg" xmlns:xlink="http://www.w3.org/1999/xlink">
    <!-- Generator: Sketch 60.1 (88133) - https://sketch.com -->
    <title>logo</title>
    <desc>Created with Sketch.</desc>
    <defs>
        <linearGradient x1="90.6010417%" y1="21.0701424%" x2="15.4822917%" y2="78.9298576%" id="linearGradient-1">
            <stop stop-color="#03DAC5" offset="0%"></stop>
            <stop stop-color="#006FFA" offset="100%"></stop>
        </linearGradient>
        <linearGradient x1="96.0605293%" y1="19.2540477%" x2="-68.6173313%" y2="163.956332%" id="linearGradient-2">
            <stop stop-color="#03DAC5" offset="0%"></stop>
            <stop stop-color="#006FFA" offset="100%"></stop>
        </linearGradient>
    </defs>
    <g id="logo" stroke="none" stroke-width="1" fill="none" fill-rule="evenodd">
        <path d="M212.5,32 C296.723424,32 365,75.4283793 365,129 C365,182.571621 296.723424,226 212.5,226 C202.193415,226 192.125632,225.349665 182.392546,224.109989 L124.337951,262.588404 C122.43053,264.470532 119.337988,264.470532 117.430566,262.588404 C116.51459,261.684574 116,260.458718 116,259.18051 L128.937688,210.154751 C87.4181426,192.823316 60,162.948293 60,129 C60,75.4283793 128.276576,32 212.5,32 Z" id="Combined-Shape" fill-opacity="0.2" fill="url(#linearGradient-1)"></path>
        <path d="M114.374917,200.898048 C72.0895091,182.526308 46,151.837938 46,118 C46,62.4140106 115.826151,18 201.5,18 C287.173849,18 357,62.4140106 357,118 C357,173.585989 287.173849,218 201.5,218 C191.558461,218 181.73617,217.402239 172.12352,216.224627 L115.209343,253.947176 C112.120455,256.7568 107.321728,256.682353 104.323452,253.723836 C102.83726,252.257352 102,250.262832 102,248.18051 L102,247.791328 L114.374917,200.898048 Z M108.024912,248.475292 C108.087151,248.841045 108.264345,249.183261 108.537681,249.452972 C109.276853,250.182343 110.491665,250.182343 111.230837,249.452972 L111.437984,249.248572 L170.66499,209.993086 L171.771586,210.13403 C181.485827,211.371306 191.42854,212 201.5,212 C284.272999,212 351,169.557252 351,118 C351,66.4427479 284.272999,24 201.5,24 C118.727001,24 52,66.4427479 52,118 C52,149.702543 77.415793,178.988884 119.093331,196.38627 L121.505287,197.393089 L108.024912,248.475292 Z" id="Combined-Shape" fill="url(#linearGradient-2)" fill-rule="nonzero"></path>
        <path d="M116.619372,122.836412 C116.619372,124.19086 116.288371,125.656544 115.626359,127.233509 C114.964346,128.810474 113.923372,130.358392 112.503404,131.877309 C111.083436,133.396226 109.270125,134.629723 107.063418,135.577836 C104.856711,136.52595 102.285456,137 99.349576,137 C97.1236801,137 95.0992965,136.787161 93.2763645,136.361478 C91.4534325,135.935794 89.798427,135.273092 88.3112982,134.373351 C86.8241695,133.47361 85.456991,132.288486 84.2097217,130.817942 C83.0967738,129.482843 82.1469445,127.988135 81.3602054,126.333773 C80.5734663,124.679411 79.9834209,122.913818 79.5900514,121.036939 C79.1966818,119.160061 79,117.167117 79,115.058047 C79,111.633228 79.4941031,108.566416 80.4823241,105.85752 C81.4705452,103.148623 82.8856948,100.831584 84.7278156,98.9063325 C86.5699364,96.981081 88.7286392,95.5153964 91.203989,94.5092348 C93.6793388,93.5030732 96.3177534,93 99.1193121,93 C102.534911,93 105.576283,93.6868885 108.243521,95.060686 C110.910758,96.4344836 112.95433,98.1323558 114.374298,100.154354 C115.794266,102.176351 116.50424,104.087062 116.50424,105.886544 C116.50424,106.873356 116.158847,107.74406 115.468052,108.498681 C114.777257,109.253302 113.942558,109.630607 112.963932,109.630607 C111.870172,109.630607 111.049865,109.369396 110.502986,108.846966 C109.956106,108.324536 109.346872,107.424808 108.675266,106.147757 C107.562318,104.038688 106.252705,102.461747 104.746387,101.416887 C103.24007,100.372026 101.383585,99.8496042 99.1768781,99.8496042 C95.6653354,99.8496042 92.8686158,101.194358 90.7866356,103.883905 C88.7046554,106.573452 87.6636809,110.394874 87.6636809,115.348285 C87.6636809,118.657009 88.1242042,121.4094 89.0452645,123.605541 C89.9663249,125.801682 91.2711409,127.441507 92.9597516,128.525066 C94.6483623,129.608625 96.6247747,130.150396 98.8890481,130.150396 C101.345209,130.150396 103.422361,129.536066 105.120566,128.307388 C106.818771,127.07871 108.099602,125.274418 108.963096,122.894459 C109.327682,121.772202 109.778611,120.857963 110.315896,120.151715 C110.853182,119.445467 111.716663,119.092348 112.906366,119.092348 C113.92337,119.092348 114.796445,119.450304 115.525618,120.166227 C116.254791,120.88215 116.619372,121.772202 116.619372,122.836412 Z M132.910546,98.2242744 L132.910546,110.414248 L151.360444,110.414248 L151.360444,98.2242744 C151.360444,96.4828409 151.749011,95.1767854 152.526155,94.3060686 C153.3033,93.4353518 154.325086,93 155.591544,93 C156.877191,93 157.918166,93.4305146 158.714499,94.2915567 C159.510832,95.1525989 159.908993,96.4634916 159.908993,98.2242744 L159.908993,131.746702 C159.908993,133.507485 159.506035,134.823215 158.700107,135.693931 C157.89418,136.564648 156.858002,137 155.591544,137 C154.305897,137 153.279314,136.559811 152.511764,135.67942 C151.744214,134.799028 151.360444,133.488135 151.360444,131.746702 L151.360444,117.437995 L132.910546,117.437995 L132.910546,131.746702 C132.910546,133.507485 132.507588,134.823215 131.70166,135.693931 C130.895732,136.564648 129.859555,137 128.593097,137 C127.30745,137 126.280867,136.559811 125.513317,135.67942 C124.745766,134.799028 124.361997,133.488135 124.361997,131.746702 L124.361997,98.2242744 C124.361997,96.4828409 124.740969,95.1767854 125.498925,94.3060686 C126.256881,93.4353518 127.288261,93 128.593097,93 C129.878744,93 130.919718,93.4305146 131.716052,94.2915567 C132.512385,95.1525989 132.910546,96.4634916 132.910546,98.2242744 Z M196.089215,131.456464 L194.074406,126.116095 L176.919742,126.116095 L174.904933,131.572559 L174.632041,132.295043 C173.961764,134.029442 173.381129,135.22528 172.890123,135.882586 C172.333649,136.627532 171.422197,137 170.155739,137 C169.081168,137 168.131339,136.603346 167.306222,135.810026 C166.481106,135.016707 166.068554,134.11698 166.068554,133.110818 C166.068554,132.53034 166.164496,131.930522 166.356384,131.311346 C166.548271,130.692169 166.864881,129.83114 167.306222,128.728232 L179.20799,98.2387863 L179.20799,98.2387863 C179.639737,97.1262038 180.10026,96.2022904 180.589574,95.4670185 C181.078887,94.7317465 181.721701,94.1367657 182.518034,93.682058 C183.314368,93.2273504 184.297777,93 185.468291,93 C186.657994,93 187.650997,93.2273504 188.447331,93.682058 C189.243664,94.1367657 189.886478,94.7220721 190.375791,95.4379947 C190.865105,96.1539174 191.277657,96.923039 191.61346,97.7453826 L192.060172,98.8645381 C192.305402,99.4902884 192.583445,100.215299 192.894303,101.039578 L203.918189,128.496042 C204.781684,130.585762 205.213424,132.104657 205.213424,133.05277 C205.213424,134.039583 204.805669,134.944147 203.990147,135.766491 C203.174625,136.588834 202.191216,137 201.03989,137 C200.368284,137 199.792629,136.879069 199.312911,136.637203 C198.833192,136.395337 198.430234,136.066405 198.104025,135.650396 C197.777816,135.234387 197.427626,134.595871 197.053446,133.734828 L196.531754,132.519459 C196.371049,132.139732 196.223537,131.785402 196.089215,131.456464 Z M179.164815,119.643799 L191.771766,119.643799 L185.410725,102.084433 L179.164815,119.643799 Z M233.708587,100.836412 L224.382897,100.836412 L224.382897,131.746702 C224.382897,133.526834 223.989534,134.847401 223.202795,135.708443 C222.416056,136.569485 221.399067,137 220.151797,137 C218.885339,137 217.853959,136.564648 217.057626,135.693931 C216.261292,134.823215 215.863131,133.507485 215.863131,131.746702 L215.863131,100.836412 L206.537442,100.836412 C205.079096,100.836412 203.994948,100.512316 203.284964,99.8641161 C202.57498,99.2159158 202.219993,98.3597239 202.219993,97.2955145 C202.219993,96.1926066 202.589371,95.3219029 203.328138,94.6833773 C204.066905,94.0448517 205.136662,93.7255937 206.537442,93.7255937 L233.708587,93.7255937 C235.186121,93.7255937 236.284661,94.0545262 237.00424,94.7124011 C237.723818,95.3702759 238.083602,96.2313051 238.083602,97.2955145 C238.083602,98.3597239 237.719021,99.2159158 236.989848,99.8641161 C236.260676,100.512316 235.166933,100.836412 233.708587,100.836412 Z M243.206975,118.686016 L243.206975,98.2242744 C243.206975,96.4828409 243.595541,95.1767854 244.372686,94.3060686 C245.149831,93.4353518 246.171617,93 247.438075,93 C248.762099,93 249.812668,93.4353518 250.589812,94.3060686 C251.366957,95.1767854 251.755524,96.4828409 251.755524,98.2242744 L251.755524,119.150396 C251.755524,121.530355 252.019365,123.518462 252.547056,125.114776 C253.074747,126.71109 254.010185,127.949424 255.353398,128.829815 C256.696611,129.710207 258.577081,130.150396 260.994864,130.150396 C264.333708,130.150396 266.69389,129.255506 268.075481,127.465699 C269.457071,125.675893 270.147856,122.962199 270.147856,119.324538 L270.147856,98.2242744 C270.147856,96.4634916 270.531626,95.1525989 271.299176,94.2915567 C272.066726,93.4305146 273.093309,93 274.378956,93 C275.664603,93 276.705577,93.4305146 277.501911,94.2915567 C278.298244,95.1525989 278.696405,96.4634916 278.696405,98.2242744 L278.696405,118.686016 C278.696405,122.014089 278.374998,124.790666 277.732175,127.015831 C277.089351,129.240996 275.875681,131.195242 274.091126,132.878628 C272.556026,134.310473 270.771498,135.355318 268.73749,136.013193 C266.703481,136.671067 264.324111,137 261.599307,137 C258.356407,137 255.564485,136.646881 253.223456,135.940633 C250.882428,135.234385 248.973175,134.141168 247.495641,132.66095 C246.018106,131.180731 244.933958,129.284532 244.243163,126.972296 C243.552367,124.660059 243.206975,121.897993 243.206975,118.686016 Z M320,123.503958 C320,126.07741 319.342795,128.389612 318.028365,130.440633 C316.713935,132.491655 314.790291,134.09762 312.257375,135.258575 C309.724459,136.419531 306.721463,137 303.248298,137 C299.084338,137 295.649601,136.206692 292.943987,134.620053 C291.025111,133.478446 289.466048,131.954715 288.26675,130.048813 C287.067453,128.14291 286.467813,126.290246 286.467813,124.490765 C286.467813,123.445905 286.827597,122.551015 287.547175,121.806069 C288.266754,121.061122 289.183003,120.688654 290.295951,120.688654 C291.197823,120.688654 291.960565,120.978889 292.584199,121.559367 C293.15114,122.087074 293.642746,122.846642 294.05903,123.838089 L294.181655,124.14248 C294.718941,125.496928 295.299392,126.628843 295.923026,127.538259 C296.546661,128.447674 297.424534,129.197446 298.55667,129.787599 C299.688807,130.377751 301.175913,130.672823 303.018034,130.672823 C305.55095,130.672823 307.608914,130.077842 309.191986,128.887863 C310.775059,127.697883 311.566583,126.21285 311.566583,124.432718 C311.566583,123.020222 311.13964,121.873795 310.28574,120.993404 C309.43184,120.113012 308.328503,119.440636 306.975696,118.976253 C305.622888,118.511871 303.814375,118.018472 301.550102,117.496042 C298.518278,116.78012 295.980603,115.943277 293.937,114.985488 C291.893397,114.0277 290.271971,112.721644 289.072674,111.067282 C287.873377,109.41292 287.273737,107.357092 287.273737,104.899736 C287.273737,102.558476 287.906957,100.478461 289.173415,98.6596306 C290.439873,96.8408001 292.272371,95.4428369 294.670966,94.4656992 C297.069561,93.4885615 299.890266,93 303.133166,93 C305.723648,93 307.963902,93.3240953 309.853995,93.9722955 C311.744088,94.6204958 313.312745,95.481525 314.560014,96.555409 C315.807284,97.629293 316.718736,98.7563705 317.294399,99.9366755 C317.870061,101.11698 318.157888,102.268244 318.157888,103.390501 C318.157888,104.416012 317.798105,105.339926 317.078526,106.162269 C316.358948,106.984613 315.461887,107.395778 314.387316,107.395778 C313.40869,107.395778 312.665137,107.149079 312.156634,106.655673 C311.648132,106.162267 311.096464,105.354447 310.501612,104.23219 C309.734062,102.626201 308.813015,101.373355 307.738445,100.473615 C306.663875,99.5738741 304.936912,99.1240106 302.557506,99.1240106 C300.350799,99.1240106 298.571069,99.6125721 297.218261,100.58971 C295.865454,101.566847 295.18906,102.742297 295.18906,104.116095 C295.18906,104.967462 295.419322,105.702723 295.879852,106.3219 C296.340382,106.941076 296.973602,107.473173 297.779529,107.918206 C298.585457,108.363239 299.400967,108.71152 300.226084,108.963061 L300.584785,109.069868 C301.424054,109.3147 302.666873,109.646729 304.313269,110.065963 C306.692675,110.627092 308.846581,111.246259 310.775051,111.923483 C312.703521,112.600707 314.344135,113.423038 315.696943,114.390501 C317.04975,115.357964 318.105116,116.581787 318.863072,118.062005 C319.621028,119.542224 320,121.35619 320,123.503958 Z" id="CHATUS" fill="#03DAC5" fill-rule="nonzero"></path>
    </g>
</svg>