<?xml version="1.0" encoding="UTF-8"?>
<svg width="20px" height="20px" viewBox="0 0 20 20" version="1.1" xmlns="http://www.w3.org/2000/svg" xmlns:xlink="http://www.w3.org/1999/xlink">
    <!-- Generator: Sketch 59.1 (86144) - https://sketch.com -->
    <title>Oval 2</title>
    <desc>Created with Sketch.</desc>
    <g id="Oval-2" stroke="none" stroke-width="1" fill="none" fill-rule="evenodd">
        <g fill="#FFFFFF" id="Oval">
            <g transform="translate(0.000000, 0.000000)">
                <circle fill-opacity="0.2" cx="10" cy="10" r="10"></circle>
                <path d="M9.54545455,17 L11.4545455,17 L11.4545455,15.05 L9.54545455,15.05 L9.54545455,17 Z M10.4791721,4 C11.044246,4 11.5404895,4.07421801 11.9679172,4.22265625 C12.395345,4.37109449 12.7684331,4.60156094 13.0871928,4.9140625 C13.3914634,5.21093898 13.6196629,5.5742166 13.7717982,6.00390625 C13.9239335,6.4335959 14,6.92187227 14,7.46875 C14,7.87500203 13.949289,8.2578107 13.8478655,8.6171875 C13.7464419,8.9765643 13.6015533,9.32031086 13.4131953,9.6484375 C13.2103483,9.96093906 12.9749043,10.2851546 12.7068564,10.6210937 C12.4388085,10.9570329 12.1454091,11.2968733 11.8266494,11.640625 C11.6672696,11.8125009 11.5404921,11.9726555 11.4463131,12.1210937 C11.3521341,12.269532 11.2905564,12.4062494 11.2615783,12.53125 C11.2326001,12.6562506 11.2108668,12.8242177 11.1963778,13.0351562 C11.1818887,13.2460948 11.1746443,13.4843737 11.1746443,13.75 L9.50116431,13.75 C9.50116431,13.3124978 9.51927539,12.9414078 9.55549808,12.6367187 C9.58568365,12.3828112 9.62844599,12.1750219 9.68378602,12.0133465 L9.71849937,11.921875 C9.77645568,11.7499991 9.89598876,11.5507824 10.0771022,11.3242187 C10.2582157,11.0976551 10.4936596,10.8437514 10.7834412,10.5625 L11.0964039,10.1518746 C11.2441915,9.95687501 11.3789386,9.77734457 11.5006468,9.61328125 C11.7034939,9.33984238 11.8628714,9.10937594 11.978784,8.921875 C12.0946966,8.71874898 12.1816297,8.50390738 12.239586,8.27734375 C12.2975423,8.05078012 12.3265201,7.79687641 12.3265201,7.515625 C12.3265201,7.20312344 12.2866757,6.92187625 12.2069858,6.671875 C12.1272959,6.42187375 12.0077628,6.21093836 11.8483829,6.0390625 C11.6890031,5.86718664 11.4970257,5.73437547 11.272445,5.640625 C11.0478643,5.54687453 10.7834427,5.5 10.4791721,5.5 C10.2183687,5.5 9.97930253,5.53906211 9.76196638,5.6171875 C9.58809747,5.67968781 9.42813994,5.76718713 9.28209081,5.87968724 L9.17516173,5.96875 C8.98680374,6.1093757 8.84915958,6.3593732 8.76222512,6.71875 C8.67529066,7.0781268 8.63182409,7.40624852 8.63182409,7.703125 L7.02354466,7.703125 L7.00181116,7.6328125 C6.98732208,7.14843508 7.05976637,6.64062766 7.21914621,6.109375 C7.37852605,5.57812234 7.62483665,5.16406398 7.95808541,4.8671875 C8.29133416,4.57031102 8.66804449,4.3515632 9.08822771,4.2109375 C9.50841092,4.0703118 9.9720544,4 10.4791721,4 Z" id="î" fill-rule="nonzero"></path>
            </g>
        </g>
    </g>
</svg>